<svg xmlns="http://www.w3.org/2000/svg" viewBox="0 0 1120 820" role="img" aria-labelledby="title desc"><title id="title">Схема оптоволокна Москвы</title><desc id="desc">Схематичное расположение точек из материалов компании. Дорожные ориентиры показаны условно. Трассы между точками не восстановлены.</desc><defs><pattern id="grid" width="40" height="40" patternUnits="userSpaceOnUse"><path d="M40 0H0V40" fill="none" stroke="#193348" stroke-width=".6"/></pattern></defs><rect width="1120" height="820" rx="24" fill="#0B1724"/><rect x="24" y="24" width="1072" height="772" rx="16" fill="url(#grid)"/><g fill="#112D30" stroke="#1C4141"><path d="M780 110L930 140 1000 270 918 330 803 251Z"/><path d="M160 350L240 315 310 413 254 496 151 460Z"/><path d="M322 600L420 649 383 744 261 704Z"/></g><g fill="none" stroke="#2B4256" stroke-width="3"><path d="M570 97C805 74 993 211 1007 408S839 731 594 750 143 654 119 435 305 103 570 97Z"/><ellipse cx="566" cy="415" rx="278" ry="237"/><ellipse cx="566" cy="416" rx="120" ry="110"/><path d="M229 168L492 358M554 98L559 305M922 215L657 365M1004 455L686 436M810 703L621 513M374 726L511 519M128 453L447 428"/></g><path d="M128 309C212 288 203 457 300 469S391 372 445 456 518 548 584 520 621 450 685 509 739 641 840 623 920 667 984 681" fill="none" stroke="#194D70" stroke-width="17"/><path d="M128 309C212 288 203 457 300 469S391 372 445 456 518 548 584 520 621 450 685 509 739 641 840 623 920 667 984 681" fill="none" stroke="#2A7095" stroke-width="2"/><g font-family="Arial,sans-serif" fill="#86AFCB" font-size="13" letter-spacing="2"><text x="510" y="73">МОСКВА</text><text x="875" y="684">МКАД</text><text x="742" y="570">ТТК</text><text x="693" y="746">МОСКВА-РЕКА</text></g><g transform="translate(1030 62)" fill="#9CBBD1"><path d="M0 38V0L-5 12H5L0 0" fill="none" stroke="#9CBBD1"/><text x="-5" y="-9" font-family="Arial" font-size="13">С</text></g><g><circle cx="405" cy="293" r="12" fill="#102D47" stroke="#33628A"/><circle cx="405" cy="293" r="5" fill="#53A2FF"/><text x="385" y="269" text-anchor="end" fill="#EEF6FF" font-family="Arial,sans-serif" font-size="16" font-weight="600" stroke="#0B1724" stroke-width="5" paint-order="stroke">Тверская Застава</text></g><g><circle cx="359" cy="266" r="12" fill="#102D47" stroke="#33628A"/><circle cx="359" cy="266" r="5" fill="#53A2FF"/><text x="339" y="248" text-anchor="end" fill="#EEF6FF" font-family="Arial,sans-serif" font-size="16" font-weight="600" stroke="#0B1724" stroke-width="5" paint-order="stroke">Скаковая</text></g><g><circle cx="516" cy="280" r="12" fill="#102D47" stroke="#33628A"/><circle cx="516" cy="280" r="5" fill="#53A2FF"/><text x="534" y="260" text-anchor="start" fill="#EEF6FF" font-family="Arial,sans-serif" font-size="16" font-weight="600" stroke="#0B1724" stroke-width="5" paint-order="stroke">Селезнёвская</text></g><g><circle cx="648" cy="311" r="12" fill="#102D47" stroke="#33628A"/><circle cx="648" cy="311" r="5" fill="#53A2FF"/><text x="666" y="291" text-anchor="start" fill="#EEF6FF" font-family="Arial,sans-serif" font-size="16" font-weight="600" stroke="#0B1724" stroke-width="5" paint-order="stroke">Каланчёвская</text></g><g><circle cx="596" cy="385" r="12" fill="#102D47" stroke="#33628A"/><circle cx="596" cy="385" r="5" fill="#53A2FF"/><text x="616" y="385" text-anchor="start" fill="#EEF6FF" font-family="Arial,sans-serif" font-size="16" font-weight="600" stroke="#0B1724" stroke-width="5" paint-order="stroke">Большая Лубянка</text></g><g><circle cx="546" cy="455" r="12" fill="#102D47" stroke="#33628A"/><circle cx="546" cy="455" r="5" fill="#53A2FF"/><text x="526" y="465" text-anchor="end" fill="#EEF6FF" font-family="Arial,sans-serif" font-size="16" font-weight="600" stroke="#0B1724" stroke-width="5" paint-order="stroke">Кремлёвская наб.</text></g><g><circle cx="563" cy="513" r="12" fill="#102D47" stroke="#33628A"/><circle cx="563" cy="513" r="5" fill="#53A2FF"/><text x="583" y="536" text-anchor="start" fill="#EEF6FF" font-family="Arial,sans-serif" font-size="16" font-weight="600" stroke="#0B1724" stroke-width="5" paint-order="stroke">Якиманка</text></g><g><circle cx="801" cy="292" r="12" fill="#102D47" stroke="#33628A"/><circle cx="801" cy="292" r="5" fill="#53A2FF"/><text x="819" y="272" text-anchor="start" fill="#EEF6FF" font-family="Arial,sans-serif" font-size="16" font-weight="600" stroke="#0B1724" stroke-width="5" paint-order="stroke">Преображенская</text></g><g><circle cx="857" cy="356" r="12" fill="#102D47" stroke="#33628A"/><circle cx="857" cy="356" r="5" fill="#53A2FF"/><text x="875" y="374" text-anchor="start" fill="#EEF6FF" font-family="Arial,sans-serif" font-size="16" font-weight="600" stroke="#0B1724" stroke-width="5" paint-order="stroke">Измайловское ш.</text></g><g><circle cx="393" cy="656" r="12" fill="#102D47" stroke="#33628A"/><circle cx="393" cy="656" r="5" fill="#53A2FF"/><text x="413" y="681" text-anchor="start" fill="#EEF6FF" font-family="Arial,sans-serif" font-size="16" font-weight="600" stroke="#0B1724" stroke-width="5" paint-order="stroke">Миклухо-Маклая</text></g><g font-family="Arial,sans-serif" font-size="14"><circle cx="64" cy="777" r="5" fill="#53A2FF"/><text x="80" y="782" fill="#CEE4F6">Точки на схеме</text><path d="M280 777H311" stroke="#45617A" stroke-width="3"/><text x="323" y="782" fill="#CEE4F6">Дорожные ориентиры</text><text x="1053" y="782" text-anchor="end" fill="#86AFCB">Без масштаба</text></g></svg>